<svg viewBox="0 0 16 14" fill="none" xmlns="http://www.w3.org/2000/svg">
    <path d="M16 3V11C16 12.6875 14.6562 14 13 14H10.75C10.3125 14 10 13.6875 10 13.25C10 12.8438 10.3125 12.5 10.75 12.5H13C13.8125 12.5 14.5 11.8438 14.5 11V3C14.5 2.1875 13.8125 1.5 13 1.5H10.75C10.3125 1.5 10 1.1875 10 0.75C10 0.34375 10.3125 0 10.75 0H13C14.6562 0 16 1.34375 16 3ZM11.4688 7.5625L6.71875 11.75C6.53125 11.9375 6.28125 12 6.03125 12C5.875 12 5.71875 12 5.59375 11.9375C5.21875 11.75 5 11.4062 5 11V9.25H1.25C0.53125 9.25 0 8.71875 0 8V6C0 5.3125 0.53125 4.75 1.25 4.75H5V3.03125C5 2.625 5.21875 2.28125 5.59375 2.09375C5.96875 1.9375 6.40625 2 6.71875 2.28125L11.4688 6.4375C11.6562 6.59375 11.75 6.8125 11.75 7C11.75 7.21875 11.6562 7.4375 11.4688 7.5625ZM9.84375 7L6.5 4.0625V6.25H1.5V7.75H6.5V9.96875L9.84375 7Z" fill="white"/>
</svg>
