<svg width="34" height="39" viewBox="0 0 34 39" fill="currentColor" xmlns="http://www.w3.org/2000/svg">
    <path fill-rule="evenodd" clip-rule="evenodd" d="M34 37.4766V39H0V37.4766C0 36.9718 0.407772 36.5625 0.910714 36.5625H2.42857V1.82812C2.42857 0.818467 3.24404 0 4.25 0H29.75C30.756 0 31.5714 0.818467 31.5714 1.82812V36.5625H33.0893C33.5922 36.5625 34 36.9718 34 37.4766ZM14.5714 11.1973V8.15039C14.5714 7.6456 14.1637 7.23633 13.6607 7.23633H10.625C10.1221 7.23633 9.71429 7.6456 9.71429 8.15039V11.1973C9.71429 11.7021 10.1221 12.1113 10.625 12.1113H13.6607C14.1637 12.1113 14.5714 11.7021 14.5714 11.1973ZM20.3393 7.23633H23.375C23.8779 7.23633 24.2857 7.6456 24.2857 8.15039V11.1973C24.2857 11.7021 23.8779 12.1113 23.375 12.1113H20.3393C19.8363 12.1113 19.4286 11.7021 19.4286 11.1973V8.15039C19.4286 7.6456 19.8363 7.23633 20.3393 7.23633ZM13.6607 14.5488H10.625C10.1221 14.5488 9.71429 14.9581 9.71429 15.4629V18.5098C9.71429 19.0146 10.1221 19.4238 10.625 19.4238H13.6607C14.1637 19.4238 14.5714 19.0146 14.5714 18.5098V15.4629C14.5714 14.9581 14.1637 14.5488 13.6607 14.5488ZM20.3393 14.5488H23.375C23.8779 14.5488 24.2857 14.9581 24.2857 15.4629V18.5098C24.2857 19.0146 23.8779 19.4238 23.375 19.4238H20.3393C19.8363 19.4238 19.4286 19.0146 19.4286 18.5098V15.4629C19.4286 14.9581 19.8363 14.5488 20.3393 14.5488ZM13.6607 21.8613H10.625C10.1221 21.8613 9.71429 22.2706 9.71429 22.7754V25.8223C9.71429 26.3271 10.1221 26.7363 10.625 26.7363H13.6607C14.1637 26.7363 14.5714 26.3271 14.5714 25.8223V22.7754C14.5714 22.2706 14.1637 21.8613 13.6607 21.8613ZM20.3393 21.8613H23.375C23.8779 21.8613 24.2857 22.2706 24.2857 22.7754V25.8223C24.2857 26.3271 23.8779 26.7363 23.375 26.7363H20.3393C19.8363 26.7363 19.4286 26.3271 19.4286 25.8223V22.7754C19.4286 22.2706 19.8363 21.8613 20.3393 21.8613ZM29.1429 2.4375V36.5625H19.4286V30.0879C19.4286 29.5831 19.0208 29.1738 18.5179 29.1738H15.4821C14.9792 29.1738 14.5714 29.5831 14.5714 30.0879V36.5625H4.85714V2.4375H29.1429Z" fill="white"/>
</svg>
