<svg width="16" height="16" viewBox="0 0 16 16" fill="currentColor" xmlns="http://www.w3.org/2000/svg">
    <path fill-rule="evenodd" clip-rule="evenodd" d="M15 2.41406V6.2775C15.6172 6.63169 15.9985 7.28838 16 8V14C16 15.1046 15.1046 16 14 16H6C5.54394 15.9981 5.10247 15.8391 4.75 15.5497C4.39753 15.8391 3.95606 15.9981 3.5 16H2C0.89543 16 0 15.1046 0 14V6C0 4.89543 0.89543 4 2 4H3.5C3.85208 4.0019 4.19729 4.09769 4.5 4.2775V1C4.5 0.447715 4.94772 0 5.5 0H12.5859C12.8512 4.00564e-05 13.1056 0.105484 13.2931 0.293125L14.7069 1.70687C14.8945 1.89439 15 2.14878 15 2.41406ZM8 11.5H9C9.27614 11.5 9.5 11.7239 9.5 12V13C9.5 13.2761 9.27614 13.5 9 13.5H8C7.72386 13.5 7.5 13.2761 7.5 13V12C7.5 11.7239 7.72386 11.5 8 11.5ZM4 14C4 14.2761 3.77614 14.5 3.5 14.5H2C1.72386 14.5 1.5 14.2761 1.5 14V6C1.5 5.72386 1.72386 5.5 2 5.5H3.5C3.77614 5.5 4 5.72386 4 6V14ZM12 1.5H6V6H13.5V3H12.5C12.2239 3 12 2.77614 12 2.5V1.5ZM14.5 14C14.5 14.2761 14.2761 14.5 14 14.5H6C5.72386 14.5 5.5 14.2761 5.5 14V7.5H14C14.2761 7.5 14.5 7.72386 14.5 8V14ZM8 8.5H9C9.27614 8.5 9.5 8.72386 9.5 9V10C9.5 10.2761 9.27614 10.5 9 10.5H8C7.72386 10.5 7.5 10.2761 7.5 10V9C7.5 8.72386 7.72386 8.5 8 8.5ZM12 8.5H11C10.7239 8.5 10.5 8.72386 10.5 9V10C10.5 10.2761 10.7239 10.5 11 10.5H12C12.2761 10.5 12.5 10.2761 12.5 10V9C12.5 8.72386 12.2761 8.5 12 8.5ZM11 11.5H12C12.2761 11.5 12.5 11.7239 12.5 12V13C12.5 13.2761 12.2761 13.5 12 13.5H11C10.7239 13.5 10.5 13.2761 10.5 13V12C10.5 11.7239 10.7239 11.5 11 11.5Z" fill="white"/>
</svg>
