<svg width="16" height="16" viewBox="0 0 16 16" fill="currentColor" xmlns="http://www.w3.org/2000/svg">
    <path fill-rule="evenodd" clip-rule="evenodd" d="M11.9473 0.0370244L14.8907 0.715302C15.5438 0.865336 16 1.44047 16 2.10937C16 9.80485 9.75999 16.0031 2.10763 16C1.43894 16 0.864001 15.5436 0.714015 14.8904L0.0359577 11.946C-0.117152 11.2708 0.229689 10.5832 0.867125 10.3112L4.04181 8.95153C4.623 8.70148 5.31043 8.87027 5.7104 9.361L6.73217 10.6113C8.36951 9.72046 9.71937 8.37015 10.613 6.73228L9.36316 5.71018C8.87258 5.31009 8.70385 4.62243 8.95382 4.04105L10.3131 0.868462C10.5849 0.230818 11.2723 -0.119261 11.9473 0.0370244ZM1.77778 11.5064L2.40359 14.2222C8.91926 14.1923 14.1923 8.91926 14.2222 2.40359L11.5064 1.77778L10.2457 4.71821L12.2849 6.38605C10.8955 9.35044 9.34446 10.8955 6.38605 12.2849L4.71821 10.2457L1.77778 11.5064Z" fill="white"/>
</svg>
